<svg width="36" height="44" viewBox="0 0 36 44" fill="none" xmlns="http://www.w3.org/2000/svg">
<g clip-path="url(#clip0_201_5147)">
<path d="M19.9301 21.5875L16.1266 19.8088L16.1436 18.4104C16.1436 17.4625 15.3387 16.6609 13.7345 16.0055C12.6179 15.555 11.3935 15.3268 10.0671 15.3268C8.74067 15.3268 7.5163 15.555 6.39962 16.0055C4.7898 16.6784 3.99055 17.48 3.99055 18.4104V36.7186C3.99055 37.6664 4.79547 38.4681 6.39962 39.1234C7.5163 39.5739 8.735 39.8021 10.0671 39.8021C11.3991 39.8021 12.6179 39.5739 13.7345 39.1234C15.3387 38.4505 16.1436 37.6489 16.1436 36.7186V31.7802H16.342L20.1285 33.6292V36.7127C20.1285 39.2228 18.6207 41.1245 15.6051 42.4117C13.9159 43.1373 12.068 43.5 10.0671 43.5C8.06613 43.5 6.21256 43.1373 4.52905 42.4117C1.50779 41.1245 0 39.2228 0 36.7127V18.4045C0 15.8944 1.50779 13.9927 4.52338 12.7055C6.21256 11.98 8.05479 11.6172 10.0614 11.6172C12.068 11.6172 13.9159 11.98 15.5994 12.7055C18.615 13.9927 20.1228 15.8944 20.1228 18.4045V21.5875H19.9244H19.9301Z" fill="#81FE88"/>
<path d="M20.1285 33.6292C20.1285 33.6292 16.6934 32.0962 16.1266 30.3408L16.1436 32.4765L20.1285 33.6292Z" fill="#81FE88"/>
<path d="M16.0699 22.4125L19.8734 24.1913L19.8564 25.5897C19.8564 26.5376 20.6613 27.3392 22.2655 27.9945C23.3821 28.445 24.6065 28.6732 25.9329 28.6732C27.2593 28.6732 28.4837 28.445 29.6004 27.9945C31.2102 27.3216 32.0095 26.52 32.0095 25.5897V7.28732C32.0095 6.33943 31.2045 5.53783 29.6004 4.8825C28.4837 4.43196 27.265 4.20377 25.9329 4.20377C24.6009 4.20377 23.3821 4.43196 22.2655 4.8825C20.6613 5.55538 19.8564 6.35699 19.8564 7.28732V12.2257H19.658L15.8715 10.3767V7.29317C15.8715 4.78303 17.3793 2.88141 20.3949 1.59416C22.0841 0.86277 23.932 0.5 25.9329 0.5C27.9339 0.5 29.7874 0.86277 31.471 1.58831C34.4865 2.87556 35.9943 4.77718 35.9943 7.28732V25.5955C35.9943 28.1057 34.4865 30.0073 31.471 31.2945C29.7818 32.0201 27.9395 32.3828 25.9329 32.3828C23.9263 32.3828 22.0784 32.0201 20.3949 31.2945C17.3793 30.0073 15.8715 28.1057 15.8715 25.5955V22.4125H16.0699Z" fill="#81FE88"/>
<path d="M15.8715 10.3708C15.8715 10.3708 19.3066 11.9038 19.8734 13.6592L19.8564 11.5235L15.8715 10.3708Z" fill="#81FE88"/>
</g>
<defs>
<clipPath id="clip0_201_5147">
<rect width="36" height="43" fill="white" transform="translate(0 0.5)"/>
</clipPath>
</defs>
</svg>
